<!-- This SVG file is here and not in /static/1stdibs/fonts/svg-icons/icons-#.svg because the css cursor url value cannot be set to a iri like "/static/1stdibs/fonts/svg-icons/icons-1.svg#magnifier" -->
<svg width="32" height="32" viewBox="0 0 250 250" xmlns="http://www.w3.org/2000/svg">
<g>
	<path d="M248.3,240L170,158.9c14.3-16.8,23-38.6,23-62.4C193,43.3,149.7,0,96.5,0C43.3,0,0,43.3,0,96.5C0,149.7,43.3,193,96.5,193
		c25.2,0,48.3-9.7,65.5-25.7l78.1,81c2.3,2.3,6,2.3,8.2,0C250.6,246,250.6,242.3,248.3,240z M96.5,181C49.9,181,12,143.1,12,96.5
		C12,49.9,49.9,12,96.5,12c46.6,0,84.5,37.9,84.5,84.5C181,143.1,143.1,181,96.5,181z"/>
	<path d="M121.2,91.2h-20v-20c0-2.5-2-4.5-4.5-4.5h-1c-2.5,0-4.5,2-4.5,4.5v20h-20c-2.5,0-4.5,2-4.5,4.5v1c0,2.5,2,4.5,4.5,4.5h20
		v20c0,2.5,2,4.5,4.5,4.5h1c2.5,0,4.5-2,4.5-4.5v-20h20c2.5,0,4.5-2,4.5-4.5v-1C125.7,93.2,123.6,91.2,121.2,91.2z"/>
</g>
</svg>
